<svg xmlns="http://www.w3.org/2000/svg" xmlns:xlink="http://www.w3.org/1999/xlink" width="22.86" height="22.86" viewBox="0 0 22.86 22.86"><defs><style>.a{fill:#fff;stroke:#8e8e8e;}.b{clip-path:url(#a);}.c{fill:#d5cdc8;}</style><clipPath id="a"><rect class="a" width="22.86" height="22.86"/></clipPath></defs><g class="b"><path class="c" d="M7.014,14.37l-2.094.9,1.94.829,2.249-.829-2.094-.9ZM3.865,15.494,3.8,19.542,6.86,20.892v-4.2L3.865,15.494Zm6.3,0L7.393,16.549v3.964l2.769-1.125ZM13.466,2.9l-2.108.9,1.954.829L15.56,3.8ZM10.542,4.095V8.143l2.615.759.084-3.683-2.7-1.124Zm5.847.225L13.916,5.374V9.352L16.39,8.227V4.32ZM3.563,8.6l-2.094.9,1.94.829L5.658,9.5,3.563,8.6ZM.415,9.722.344,13.77,3.409,15.12v-4.2Zm6.3,0L3.943,10.776V14.74l2.769-1.124V9.722Zm3.6-1.274-2.094.9,1.94.829L12.4,9.347l-2.094-.9ZM7.162,9.572l-.07,4.048,3.064,1.349v-4.2Zm6.3,0L10.69,10.626V14.59l2.769-1.125Zm6.6-6.672-2.094.9,1.94.829L22.15,3.8l-2.095-.9ZM16.907,4.025l-.07,4.048L19.9,9.422v-4.2L16.907,4.025Zm6.3,0L20.436,5.079V9.043L23.2,7.918V4.025Z" transform="translate(-0.344 -0.466)"/></g></svg>