<svg xmlns="http://www.w3.org/2000/svg" xmlns:xlink="http://www.w3.org/1999/xlink" width="22.86" height="22.86" viewBox="0 0 22.86 22.86"><defs><style>.a{fill:#fff;stroke:#8e8e8e;}.b{clip-path:url(#a);}.c{fill:#d5cdc8;}</style><clipPath id="a"><rect class="a" width="22.86" height="22.86"/></clipPath></defs><g class="b"><g transform="translate(0 0.026)"><path class="c" d="M17.425,18.466v4.416A11.469,11.469,0,0,0,28.289,7.809a11.05,11.05,0,0,0-7.22-7.22A11.469,11.469,0,0,0,6,11.452h4.427a7.036,7.036,0,0,1,9.587-6.536,6.629,6.629,0,0,1,3.953,3.952,7.036,7.036,0,0,1-6.527,9.588v-4.4H13.022v4.412Zm-4.4,3.391H9.63v-3.39h3.392v3.39ZM9.633,18.466H6.789V15.625s0,0,0,0H9.633Z" transform="translate(-5.995 -0.022)"/></g></g></svg>