<svg xmlns="http://www.w3.org/2000/svg" width="25.508" height="22.859" viewBox="0 0 25.508 22.859"><defs><style>.a{fill:#d5cdc8;}</style></defs><g transform="translate(-573 -687)"><path class="a" d="M21.9,16.907H13.356a1.263,1.263,0,1,1,0-2.525H21.9a1.263,1.263,0,1,1,0,2.525Zm0,5H13.356a1.263,1.263,0,0,1,0-2.525H21.9a1.263,1.263,0,1,1,0,2.525Zm5.8,4.127V10.061A1.593,1.593,0,0,0,25.94,8.3s-10.553.011-9.989,0a1.249,1.249,0,0,1-.908-.317s-.419-.725-1.177-1.864c-.79-1.2-1.709-1-1.709-1H4.388A2.082,2.082,0,0,0,2.212,7.192V25.928c0,2.31,1.746,2.026,1.746,2.026H26.1c1.87,0,1.607-1.924,1.607-1.924Zm-1.585-.946a1.286,1.286,0,0,1-1.29,1.29H5.086a1.286,1.286,0,0,1-1.29-1.29V11.716a1.286,1.286,0,0,1,1.29-1.29H24.833a1.286,1.286,0,0,1,1.29,1.29V25.085ZM8.665,15.644m-1.349,0A1.349,1.349,0,1,0,8.665,14.3,1.349,1.349,0,0,0,7.316,15.644Zm1.349,5-1.349,0a1.349,1.349,0,1,0,1.349-1.349A1.349,1.349,0,0,0,7.316,20.641Z" transform="translate(570.788 681.893)"/></g></svg>