<?xml version="1.0" encoding="utf-8"?>
<!-- Generator: Adobe Illustrator 25.0.1, SVG Export Plug-In . SVG Version: 6.00 Build 0)  -->
<svg version="1.1" id="Layer_1" xmlns="http://www.w3.org/2000/svg" xmlns:xlink="http://www.w3.org/1999/xlink" x="0px" y="0px"
	 viewBox="0 0 600 600" style="enable-background:new 0 0 600 600;" xml:space="preserve">
<style type="text/css">
	.st0{clip-path:url(#SVGID_3_);fill:url(#SVGID_4_);}
	.st1{clip-path:url(#SVGID_7_);fill:url(#SVGID_8_);}
	.st2{clip-path:url(#SVGID_11_);fill:url(#SVGID_12_);}
</style>
<g>
	<g>
		<defs>
			<path id="SVGID_1_" d="M140,123.93c-6.72,39.28,2.28,78.78,25.32,111.22c3.54,4.98,10.43,6.16,15.39,2.61
				c4.97-3.53,6.14-10.41,2.6-15.39c-19.62-27.62-27.28-61.27-21.56-94.71c11.77-68.97,77.5-115.44,146.5-103.74
				c33.4,5.71,62.6,24.08,82.2,51.75c19.59,27.65,27.25,61.29,21.54,94.71c-3.27,19.15-10.62,36.83-21.86,52.54
				c-3.55,4.95-2.4,11.84,2.56,15.4c1.95,1.39,4.19,2.06,6.41,2.06c3.44,0,6.83-1.61,8.99-4.62c13.18-18.44,21.82-39.19,25.66-61.67
				c6.7-39.22-2.28-78.7-25.29-111.18c-23-32.48-57.28-54.04-96.5-60.73C303.49,0.71,295.06,0,286.73,0
				C215.54,0.01,152.36,51.44,140,123.93"/>
		</defs>
		<linearGradient id="SVGID_2_" gradientUnits="userSpaceOnUse" x1="137.8292" y1="120.1795" x2="435.9183" y2="120.1795">
			<stop  offset="0" style="stop-color:#FFFFFF"/>
			<stop  offset="0.0331" style="stop-color:#FAF9FA"/>
			<stop  offset="0.0752" style="stop-color:#EAEAEA"/>
			<stop  offset="0.1221" style="stop-color:#D1D0D0"/>
			<stop  offset="0.1726" style="stop-color:#ADABAC"/>
			<stop  offset="0.226" style="stop-color:#7F7C7D"/>
			<stop  offset="0.2809" style="stop-color:#484445"/>
			<stop  offset="0.3017" style="stop-color:#312D2E"/>
			<stop  offset="0.7095" style="stop-color:#3F3B3C"/>
			<stop  offset="1" style="stop-color:#000000"/>
		</linearGradient>
		<use xlink:href="#SVGID_1_"  style="overflow:visible;fill:url(#SVGID_2_);"/>
		<clipPath id="SVGID_3_">
			<use xlink:href="#SVGID_1_"  style="overflow:visible;"/>
		</clipPath>
		<linearGradient id="SVGID_4_" gradientUnits="userSpaceOnUse" x1="139.1139" y1="120.6527" x2="446.287" y2="120.6527">
			<stop  offset="0" style="stop-color:#F9992B"/>
			<stop  offset="0.0477" style="stop-color:#F7932C"/>
			<stop  offset="0.1083" style="stop-color:#F1842D"/>
			<stop  offset="0.1224" style="stop-color:#EF7F2E"/>
			<stop  offset="0.1455" style="stop-color:#EC772F"/>
			<stop  offset="0.1811" style="stop-color:#E36132"/>
			<stop  offset="0.2245" style="stop-color:#D43E36"/>
			<stop  offset="0.7095" style="stop-color:#9B6367"/>
			<stop  offset="1" style="stop-color:#50AAAA"/>
		</linearGradient>
		<rect x="133.28" y="0" class="st0" width="307.17" height="241.3"/>
	</g>
	<g>
		<defs>
			<path id="SVGID_5_" d="M230.45,69.44c-21.2,14.99-35.36,37.49-39.71,63.13c-3.89,22.5,0.18,45.19,11.38,64.81l9.91-58.14h0.09
				c0.09-1.02,0.18-1.95,0.36-2.97c3.43-19.81,14.35-37.22,30.74-48.89c16.48-11.66,36.48-16.2,56.39-12.77
				c41.01,6.95,68.69,46.1,61.75,87.12c-0.28,1.48-0.55,2.96-1.02,4.35l-9.63,56.66c17.14-14.71,28.52-34.8,32.31-57.3
				c9.07-53.05-26.66-103.6-79.71-112.58c-5.57-0.96-11.14-1.44-16.68-1.44C266.65,51.42,247.13,57.62,230.45,69.44"/>
		</defs>
		<linearGradient id="SVGID_6_" gradientUnits="userSpaceOnUse" x1="189.3025" y1="137.0842" x2="384.4381" y2="137.0842">
			<stop  offset="0" style="stop-color:#FFFFFF"/>
			<stop  offset="0.0331" style="stop-color:#FAF9FA"/>
			<stop  offset="0.0752" style="stop-color:#EAEAEA"/>
			<stop  offset="0.1221" style="stop-color:#D1D0D0"/>
			<stop  offset="0.1726" style="stop-color:#ADABAC"/>
			<stop  offset="0.226" style="stop-color:#7F7C7D"/>
			<stop  offset="0.2809" style="stop-color:#484445"/>
			<stop  offset="0.3017" style="stop-color:#312D2E"/>
			<stop  offset="0.7095" style="stop-color:#3F3B3C"/>
			<stop  offset="1" style="stop-color:#000000"/>
		</linearGradient>
		<use xlink:href="#SVGID_5_"  style="overflow:visible;fill:url(#SVGID_6_);"/>
		<clipPath id="SVGID_7_">
			<use xlink:href="#SVGID_5_"  style="overflow:visible;"/>
		</clipPath>
		<linearGradient id="SVGID_8_" gradientUnits="userSpaceOnUse" x1="186.8513" y1="137.0812" x2="392.1045" y2="137.0812">
			<stop  offset="0.1176" style="stop-color:#F9992B"/>
			<stop  offset="0.1511" style="stop-color:#F7932C"/>
			<stop  offset="0.1937" style="stop-color:#F0842E"/>
			<stop  offset="0.2413" style="stop-color:#E66A31"/>
			<stop  offset="0.292" style="stop-color:#D74635"/>
			<stop  offset="0.3017" style="stop-color:#D43E36"/>
			<stop  offset="0.7095" style="stop-color:#9B6367"/>
			<stop  offset="1" style="stop-color:#50AAAA"/>
		</linearGradient>
		<rect x="186.85" y="51.42" class="st1" width="205.25" height="171.33"/>
	</g>
	<g>
		<defs>
			<path id="SVGID_9_" d="M208.15,355.78c5.49-0.09,10.16-4.04,11.19-9.42l36.53-194.03c0.08-0.36,7.97-37.08,32.28-32.09
				c9.26,1.9,15.53,5.55,19.15,11.16c5.2,8.05,5.7,20.87,1.55,39.15c-6.11,26.87-17.91,81.82-17.91,81.82
				c-1.06,4.9,1.19,9.86,5.51,12.39c4.31,2.53,9.81,1.93,13.56-1.38c1.5-1.31,15-12.59,31.24-3.38c13.3,7.53,7.64,21.2,5.64,25.14
				c-2.86,5.41-1.01,12.07,4.2,15.27c5.2,3.18,12.02,1.74,15.54-3.24c1.45-2.06,14.68-19.86,32.11-11.27
				c16.67,8.21,11.35,25.68,10.14,29.02c-1.95,5.14,0.02,10.91,4.69,13.85c4.67,2.94,10.77,2.14,14.56-1.84
				c2.35-2.47,14.87-14.27,29.99-4.19c15.79,10.52,12.51,26.43,5.24,51.38l-0.31,1.09c-6.53,22.42-26.17,108.67-27.16,113.18
				c-0.04,0.29-4.94,29.9-33.47,54.28c-26.55,22.72-51.61,35.03-107.89,35.03c-47.48,0-73.62-20.32-90.23-70.13
				c-18.24-54.74-52.55-135.93-59.25-151.64v-0.01l-18.78-44.08c-0.08-0.18-8.15-18.8,6.45-31.72c1.46-1.28,3.39-1.75,5.41-1.75
				c2.17,0,4.45,0.53,6.36,1.16c19.38,6.29,44.97,34.79,52.16,67.18c1.18,5.3,5.88,9.06,11.3,9.06H208.15z M233.16,147.81
				l-29.37,156c-14.31-23.45-34.68-40.62-52.14-46.3c-13.38-4.34-25.53-2.46-34.26,5.28c-21.75,19.24-17.52,46.68-12.33,58.32
				l18.7,43.9c6.64,15.57,40.63,96.01,58.59,149.9c19.81,59.43,54.42,85.94,112.18,85.94c55.74,0,87.92-10.62,122.94-40.57
				c35.42-30.28,41.1-66.95,41.15-67.59c0.21-0.89,20.32-89.23,26.65-111.01l0.32-1.09c6.54-22.46,16.43-56.39-14.63-77.11
				c-13.63-9.08-26.89-9.27-37.8-5.92c-1.76-12.01-8.27-24.56-24.2-32.41c-13.95-6.87-26.79-5.58-37.31-1.01
				c-2.21-9.17-7.89-17.99-19-24.28c-12.16-6.9-24.07-7.6-34.15-5.49c3.95-18.21,9.38-43.16,12.92-58.68
				c5.6-24.69,4.08-43.28-4.67-56.84c-7.07-10.95-18.49-18.12-33.97-21.28c-3.4-0.7-6.65-1.03-9.74-1.03
				C252.34,96.54,237.15,128.85,233.16,147.81"/>
		</defs>
		<linearGradient id="SVGID_10_" gradientUnits="userSpaceOnUse" x1="100.8806" y1="348.687" x2="492.4324" y2="348.687">
			<stop  offset="0" style="stop-color:#FFFFFF"/>
			<stop  offset="0.0331" style="stop-color:#FAF9FA"/>
			<stop  offset="0.0752" style="stop-color:#EAEAEA"/>
			<stop  offset="0.1221" style="stop-color:#D1D0D0"/>
			<stop  offset="0.1726" style="stop-color:#ADABAC"/>
			<stop  offset="0.226" style="stop-color:#7F7C7D"/>
			<stop  offset="0.2809" style="stop-color:#484445"/>
			<stop  offset="0.3017" style="stop-color:#312D2E"/>
			<stop  offset="0.7095" style="stop-color:#3F3B3C"/>
			<stop  offset="1" style="stop-color:#000000"/>
		</linearGradient>
		<use xlink:href="#SVGID_9_"  style="overflow:visible;fill:url(#SVGID_10_);"/>
		<clipPath id="SVGID_11_">
			<use xlink:href="#SVGID_9_"  style="overflow:visible;"/>
		</clipPath>
		<linearGradient id="SVGID_12_" gradientUnits="userSpaceOnUse" x1="95.64" y1="348.6871" x2="502.0176" y2="348.6871">
			<stop  offset="0.0148" style="stop-color:#299FC2"/>
			<stop  offset="0.1888" style="stop-color:#F9992B"/>
			<stop  offset="0.2397" style="stop-color:#F7932C"/>
			<stop  offset="0.3045" style="stop-color:#F0842E"/>
			<stop  offset="0.3768" style="stop-color:#E66A31"/>
			<stop  offset="0.4539" style="stop-color:#D74635"/>
			<stop  offset="0.4686" style="stop-color:#D43E36"/>
			<stop  offset="0.7501" style="stop-color:#9B6367"/>
			<stop  offset="0.9833" style="stop-color:#50AAAA"/>
		</linearGradient>
		<rect x="95.64" y="96.53" class="st2" width="406.38" height="504.31"/>
	</g>
</g>
</svg>
