<?xml version="1.0" encoding="utf-8"?>
<!-- Generator: Adobe Illustrator 24.0.3, SVG Export Plug-In . SVG Version: 6.00 Build 0)  -->
<svg version="1.1" xmlns="http://www.w3.org/2000/svg" xmlns:xlink="http://www.w3.org/1999/xlink" x="0px" y="0px"
	 viewBox="0 0 750 500" style="enable-background:new 0 0 750 500;" xml:space="preserve">
<style type="text/css">
	.st0{fill:#FFFEFD;}
	.st1{fill:#CBF4F4;}
	.st2{fill:#272742;}
	.st3{fill:#D2FFFF;}
	.st4{fill:#FF7733;}
	.st5{fill:#FF5331;}
	.st6{fill:#ED9E48;}
	.st7{fill:#F7B05C;}
	.st8{fill:#BC722E;}
	.st9{fill:#38B2AC;}
	.st10{fill:#BBFFF5;}
	.st11{fill:#636272;}
	.st12{fill:#38385E;}
	.st13{fill:#FFBE55;}
	.st14{fill:#FFE5B8;}
	.st15{fill:#4C2222;}
	.st16{fill:#261414;}
	.st17{fill:#F7A62F;}
	.st18{fill:#E8E8E8;}
	.st19{fill:#A8E5E3;}
	.st20{fill:#FFC764;}
</style>
<g id="BACKGROUND">
	<rect class="st0" width="750" height="500"/>
</g>
<g id="OBJECTS">
	<path class="st1" d="M686.42,405.35c-1.33,4.46-2.82,8.87-4.4,13.25H91.2c-7.47-11.41-13.45-23.81-17.68-36.78
		c-5.45-16.7-8.61-34.76-6.97-52.35c1.57-16.85,8.51-33.17,23.05-42.73c13.48-8.88,29.98-11.4,45.46-14.71
		c16.17-3.46,31.6-8.29,45.08-18.16c14.28-10.46,24.37-24.51,31.94-40.36c14.34-30.07,24.56-68.65,58.77-82.34
		c38.04-15.22,74.61,16.02,107.98,29.5c16.7,6.74,34.1,9.44,51.79,5.29c16.51-3.89,31.57-12.04,46.99-18.79
		c15.27-6.7,31.43-12.08,48.32-10.45c15.6,1.5,30.65,8.35,42.47,18.55c11.87,10.25,20.54,23.85,23.95,39.21
		c3.54,15.96,2.58,32.98,8.53,48.4c2.8,7.27,7.2,13.68,13.3,18.57c6.19,4.96,13.43,8.25,20.67,11.34
		c7.48,3.19,15.09,6.23,21.94,10.69c6.89,4.49,12.9,10.29,17.87,16.81C697.73,330.47,696.8,370.53,686.42,405.35z"/>
	<g>
		<path class="st2" d="M428.18,173.14c-0.64,0.17-1.25,0.4-1.81,0.73c-0.63,0.37-1.17,0.87-1.61,1.44l-2.87-3.78
			c-0.99,0.48-2.05,0.78-3.17,0.89c-0.2,0.02-0.41,0.05-0.62,0.06c-0.38,0.02-0.76,0.02-1.15,0.01c-5.8-0.2-12.51-4.6-17.04-11.77
			c-5.49-8.69-6.03-18.28-1.47-23.17c0.05-0.06,0.09-0.1,0.15-0.16c0.56-0.65,1.23-1.21,1.97-1.68c6.44-4.06,16.64,0.55,22.8,10.29
			c5.28,8.37,5.85,17.81,1.83,22.88L428.18,173.14z"/>
		<path class="st3" d="M424.67,168.13c-6.44,4.06-16.64-0.55-22.8-10.29c-4.14-6.58-5.49-13.58-3.91-18.79
			c0.2-0.17,0.43-0.31,0.65-0.45c6.44-4.06,16.65,0.55,22.8,10.29c4.09,6.47,5.36,13.59,3.85,18.83
			C425.07,167.87,424.87,168,424.67,168.13z"/>
		<g>
			<path class="st4" d="M546.83,199.85c-0.06,24.98-0.53,49.96-1.42,74.93H452.6v-46.85c-4.28,0.06-8.56,0.09-12.82-0.33
				c-2.53-0.26-5.12-0.71-7.2-2.17c-3.81-2.7-4.7-7.91-5.07-12.57c-0.76-9.42-0.7-18.89,0.14-28.29l0.75-11.46
				c1.16-6.22,2.99-12.37,6.17-17.82c3.26-5.6,8.03-10.44,13.94-13.04c0.42,0.4,0.82,0.79,1.24,1.17c2.08,1.95,4.41,3.99,7.26,4.23
				c1.55,0.13,3.06-0.3,4.49-0.96c2.12,5.65,4.75,11.1,7.88,16.26c10.8-10.76,16.51-26.42,15.18-41.6l-0.11-0.01
				c0.08-0.77,0.08-1.55,0.06-2.34c11.4-1.18,22.91,0.17,34.31,1.51c4.1,0.49,8.2,0.97,12.31,1.46l-0.01,0.1
				C531.11,122.05,548.26,124.92,546.83,199.85z"/>
			<polygon class="st5" points="508.56,210.82 546.83,199.85 545.95,265.29 514.43,227.34 			"/>
			<path class="st6" d="M494.47,227.13c-0.11-0.16-0.21-0.31-0.31-0.48c-0.01-4.88,0.06-9.79,0.2-14.67
				c4.73-0.39,9.46-0.77,14.19-1.16l0.02,0.19c3.46,2.07,5.49,6.01,6.02,10c0.52,3.99-0.31,8.04-1.53,11.88
				c-0.36,1.15-0.77,2.3-1.55,3.21c-1.78,2.07-4.87,2.26-7.6,2.28c-4.13,0.04-8.49,0.02-12.04-2.09c-1.37-0.82-2.68-2.48-1.91-3.88
				c0.33-0.6,0.97-0.95,1.59-1.25c1.79-0.84,3.69-1.42,5.64-1.7C496.11,228.95,495.16,228.13,494.47,227.13z"/>
		</g>
		<g>
			<path class="st4" d="M546.83,199.85c-0.09,0.21-0.19,0.43-0.31,0.64c-1.8,3.49-5.83,5.15-9.62,6.22
				c-8.96,2.53-18.32,3.3-27.61,4.06c-0.25,0.02-0.49,0.04-0.74,0.06c-4.73,0.39-9.46,0.77-14.19,1.16
				c-7.48,0.62-14.97,1.23-22.46,1.84c-0.56-2.39-0.94-4.8-1.24-7.23c-0.25-1.97-0.43-3.94-0.63-5.91c-0.4-4.07-0.8-8.13-1.18-12.2
				c-0.01-0.13-0.02-0.26-0.04-0.39c17.22-3.39,34.57-6.06,52.02-7.98c-4.5-12.31-7.27-25.24-8.2-38.32
				c-0.42-5.94-0.13-12.73,4.34-16.67c3.4-3.01,8.34-3.48,12.88-3.17c0.42,0.03,0.83,0.06,1.26,0.1c2.93,0.31,5.88,1.03,8.09,2.94
				c3.03,2.62,4.01,6.84,4.74,10.77c3.57,19.24,5.01,38.89,3.88,58.43C547.71,196.11,547.56,198.08,546.83,199.85z"/>
			<path class="st7" d="M428.35,173.38c0.02-0.1,0.04-0.19,0.06-0.29c0.23-0.06,0.46-0.1,0.7-0.14c4.39-0.68,8.77,1.4,12.38,4.01
				c3.61,2.61,6.81,5.82,10.72,7.95c5.03,2.74,10.91,3.47,16.66,3.56c0.39,4.07,0.79,8.13,1.18,12.2c0.19,1.97,0.38,3.94,0.63,5.91
				c-7.75-2.03-15.81-2.61-23.71-3.97c-5.32-0.92-10.98-2.44-14.35-6.66c-2.45-3.09-3.29-7.18-3.34-11.13
				c-0.55-0.01-1.11-0.1-1.63-0.28c-1.89-0.61-3.47-2.17-3.98-4.1c-0.47-1.76-0.01-3.7,1.08-5.14c0.44-0.57,0.98-1.07,1.61-1.44
				c0.56-0.33,1.17-0.56,1.81-0.73L428.35,173.38z"/>
		</g>
		<rect x="452.6" y="274.77" class="st2" width="92.81" height="95.4"/>
		<g>
			<path class="st2" d="M473.41,106.34l0.24-0.05c0.55,1.93,0.71,3.98,0.46,5.98c-1.62-0.54-2.72-2.02-3.71-3.41
				c-2.56-3.61-5.12-7.21-7.69-10.81c-0.33-0.46-0.7-0.95-1.26-1.09c-0.51-0.13-1.03,0.08-1.51,0.31
				c-6.82,3.08-13.07,7.33-19.97,10.22c-2.13,0.89-4.36,1.64-6.62,2.16c-5.1,1.19-10.41,1.28-15.21-0.67
				c-1.45-0.59-2.87-1.39-3.89-2.57c-1.04-1.18-1.64-2.82-1.3-4.36c0.46-2.17,2.61-3.61,4.76-4.17c2.16-0.55,4.42-0.47,6.6-0.9
				c3.63-0.69,6.85-2.75,9.72-5.08c2.87-2.33,5.48-4.99,8.44-7.18c2.97-2.2,6.41-3.97,10.1-4.17s7.63,1.43,9.42,4.67
				c1.8-1.89,4.15-3.34,6.73-3.7c2.59-0.36,5.4,0.48,7.09,2.47c1.17,1.38,1.74,3.17,2.2,4.93c0.94,3.62,1.55,7.32,1.84,11.03
				c-0.06-0.09-0.11-0.18-0.17-0.27c-1.02-1.59-2.81-3.23-4.56-2.52c-1.31,0.54-1.8,2.13-1.97,3.54
				C472.97,102.57,473.04,104.49,473.41,106.34z"/>
			<path class="st6" d="M484.56,121.33c1.33,15.19-4.37,30.85-15.18,41.6c-3.13-5.16-5.76-10.61-7.88-16.26
				c0.86-0.39,1.68-0.86,2.47-1.35c7.42-4.6,13.74-10.94,18.3-18.38c0.79-1.28,1.53-2.61,1.91-4.06c0.13-0.52,0.22-1.04,0.27-1.56
				L484.56,121.33z"/>
			<path class="st7" d="M461.5,146.67c-1.42,0.67-2.93,1.09-4.49,0.96c-2.85-0.24-5.18-2.28-7.26-4.23
				c-0.42-0.39-0.82-0.78-1.24-1.17c-4.06-3.88-7.95-7.98-10.69-12.87c-0.47-0.85-0.92-1.87-0.56-2.77
				c0.36-0.92,1.42-1.36,2.01-2.16c1.15-1.54,0.21-3.7-0.73-5.36c-1.68-2.98-3.38-5.96-5.06-8.94l-0.11-0.48
				c2.27-0.53,4.5-1.28,6.62-2.16c6.9-2.89,13.15-7.14,19.97-10.22c0.48-0.22,1-0.43,1.51-0.31c0.55,0.14,0.92,0.63,1.26,1.09
				c2.56,3.61,5.12,7.21,7.69,10.81c0.32,0.45,0.64,0.9,1,1.33c0.96,1.17,2.85,0.29,2.61-1.2c-0.14-0.89-0.36-1.78-0.61-2.65l0,0
				c-0.37-1.85-0.44-3.76-0.23-5.63c0.23-1.91,1.04-4.15,3.68-3.66c1.23,0.22,2.19,1.13,2.67,2.28c0.12,0.28,0.23,0.43,0.35,0.62
				c3.26,5.28,4.21,11.65,4.57,17.86c0.02,0.39,0.05,0.78,0.06,1.17c0.03,0.79,0.03,1.57-0.06,2.34c-0.05,0.53-0.14,1.05-0.27,1.56
				c-0.38,1.45-1.12,2.78-1.91,4.06c-4.57,7.44-10.89,13.78-18.3,18.38C463.18,145.81,462.36,146.28,461.5,146.67z"/>
			<path class="st8" d="M452.47,129.36c-0.87,0.22-1.74,0.41-2.62,0.59c-0.44,0.09-0.88,0.17-1.32,0.25
				c-0.16,0.03-0.36,0.05-0.53,0.08c0-0.06-0.01-0.13,0-0.18c0.1-1.82,0.26-3.64,0.5-5.44c0.03-0.24-0.07-0.47-0.32-0.54
				c-0.21-0.06-0.51,0.08-0.54,0.32c-0.14,1.05-0.25,2.11-0.35,3.16c-0.05,0.53-0.09,1.06-0.12,1.59c-0.03,0.48-0.12,1-0.07,1.48
				c0.06,0.52,0.52,0.59,0.95,0.52c0.52-0.08,1.04-0.18,1.56-0.28c1.04-0.2,2.07-0.43,3.1-0.68
				C453.26,130.08,453.03,129.22,452.47,129.36z"/>
			<path class="st0" d="M462.12,135.96c-0.26,1.56-0.95,3.17-2.36,4.02c-1.3,0.78-2.98,0.78-4.36,0.23c-1.52-0.59-2.74-1.74-3.73-3
				c-0.05-0.07-0.08-0.15-0.09-0.22c-0.2-0.19-0.24-0.54,0.04-0.74c2.92-2.02,5.92-3.93,9-5.71c0.15-0.08,0.29-0.07,0.4-0.01
				c0.21-0.04,0.45,0.04,0.55,0.29C462.24,132.44,462.43,134.23,462.12,135.96z"/>
			<path class="st2" d="M455.08,113.42c-0.67-0.69-1.18-1.73-1.09-2.71c0.01-0.07,0.03-0.13,0.05-0.19
				c0.03-0.12,0.07-0.23,0.12-0.35c0.26-0.53,0.83-0.73,1.39-0.64c0.95,0.13,1.9,0.81,2.35,1.65c0.45,0.83,0.39,1.91-0.36,2.54
				c-0.37,0.32-0.83,0.45-1.31,0.38C455.79,114.03,455.38,113.75,455.08,113.42z"/>
			<path class="st2" d="M441.18,121.16c-0.67-0.69-1.18-1.73-1.09-2.71c0.01-0.07,0.03-0.13,0.05-0.19
				c0.03-0.12,0.07-0.23,0.12-0.35c0.26-0.53,0.83-0.73,1.39-0.64c0.95,0.13,1.9,0.81,2.35,1.65c0.45,0.83,0.39,1.91-0.36,2.54
				c-0.37,0.32-0.83,0.45-1.31,0.38C441.89,121.77,441.48,121.49,441.18,121.16z"/>
			<path class="st2" d="M457.52,104.92c-2.48-0.71-5.37,0.1-7.06,2.06c-0.46,0.53-0.57,1.37-0.01,1.89c0.5,0.46,1.4,0.58,1.89,0.01
				c0.17-0.19,0.35-0.37,0.54-0.54c0.04-0.04,0.08-0.07,0.12-0.1c0.08-0.06,0.16-0.12,0.24-0.17c0.21-0.14,0.44-0.26,0.67-0.37
				c0.03-0.02,0.07-0.03,0.1-0.05c0.01,0,0.01,0,0.01,0c0.12-0.04,0.24-0.08,0.36-0.12c0.23-0.07,0.46-0.12,0.7-0.16
				c0.04,0,0.09-0.01,0.13-0.01c0.13-0.01,0.25-0.02,0.38-0.02c0.13,0,0.25,0,0.38,0.01c0.06,0,0.11,0.01,0.17,0.01
				c0.01,0,0.02,0,0.03,0c0.04,0.01,0.07,0.01,0.09,0.01c0.06,0.01,0.11,0.02,0.17,0.03c0.14,0.03,0.28,0.06,0.41,0.1
				c0.67,0.19,1.48-0.26,1.63-0.96C458.63,105.83,458.24,105.13,457.52,104.92z"/>
			<path class="st2" d="M435.6,117.92c0.53-2.52,2.59-4.7,5.11-5.29c0.68-0.16,1.48,0.13,1.68,0.87c0.18,0.65-0.14,1.51-0.87,1.68
				c-0.25,0.06-0.49,0.13-0.73,0.22c-0.05,0.02-0.1,0.04-0.15,0.06c-0.09,0.05-0.18,0.09-0.26,0.14c-0.22,0.13-0.43,0.27-0.64,0.42
				c-0.03,0.02-0.06,0.05-0.09,0.07c0,0-0.01,0.01-0.01,0.01c-0.09,0.09-0.19,0.17-0.28,0.27c-0.17,0.17-0.32,0.36-0.47,0.54
				c-0.02,0.04-0.05,0.07-0.07,0.11c-0.07,0.11-0.13,0.22-0.19,0.33c-0.06,0.11-0.12,0.23-0.17,0.34c-0.02,0.05-0.05,0.1-0.07,0.16
				c0,0.01-0.01,0.02-0.01,0.03c-0.01,0.03-0.02,0.07-0.03,0.08c-0.02,0.05-0.03,0.11-0.05,0.16c-0.04,0.14-0.07,0.27-0.1,0.41
				c-0.14,0.68-0.92,1.19-1.61,1C435.88,119.32,435.44,118.65,435.6,117.92z"/>
		</g>
		<path class="st4" d="M444.29,144.58"/>
		<path class="st5" d="M531.12,121.95l-0.01,0.1c-0.43-0.04-0.84-0.07-1.26-0.1c-4.53-0.31-9.47,0.16-12.88,3.17
			c-4.46,3.94-4.75,10.73-4.33,16.67c0.93,13.08,3.7,26.01,8.2,38.32c-14.88,1.64-29.69,3.82-44.41,6.53l-32.14-42.06
			c1.33-0.91,2.74-1.7,4.22-2.35c0.42,0.4,0.83,0.79,1.24,1.18c2.08,1.95,4.41,3.98,7.26,4.22c1.56,0.13,3.06-0.29,4.49-0.96
			c2.12,5.65,4.75,11.1,7.88,16.26c10.8-10.76,16.51-26.41,15.18-41.6l-0.11-0.01c0.08-0.77,0.08-1.55,0.05-2.34
			c11.41-1.18,22.91,0.17,34.31,1.51C522.9,120.98,527.01,121.46,531.12,121.95z"/>
	</g>
	<g>
		<path class="st9" d="M694.49,417.88l-0.03,0.18H439.17c1.99-6.7,7.56-12.12,13.9-15.33c7.14-3.61,15.21-4.83,23.13-6.01
			c-6.59-7.48-11.38-16.55-13.82-26.22c-1.89-7.39-1.74-16.63,4.54-20.94c4.16-2.87,9.73-2.56,14.65-1.43
			c8.9,2.04,17.26,6.38,24.02,12.52c-1.86-13.29-1.19-26.92,1.92-39.97c1.9-7.91,5.79-16.69,13.67-18.72
			c7.12-1.86,14.35,2.78,19.42,8.12c7.42,7.83,12.63,17.74,14.88,28.31c7.97-14.15,16.25-28.68,29.01-38.72
			c6.74-5.3,16.14-9.22,23.75-5.24c5.39,2.82,8.33,9.01,8.87,15.07c0.53,6.05-0.95,12.09-2.43,17.97
			c-1.98,7.91-3.95,15.81-5.93,23.7c9.63-6.04,20.44-10.15,31.64-12.06c4.54-0.77,9.49-1.1,13.5,1.16
			c5.55,3.14,7.53,10.5,6.29,16.75c-1.22,6.26-4.96,11.68-8.62,16.9c-3.44,4.92-6.88,9.82-10.32,14.74
			c10.8-3.14,22.81-1.83,32.67,3.58C683.77,397.66,691.33,407.09,694.49,417.88z"/>
		<path class="st10" d="M527.22,342.14v75.27c0,0.97,1.51,0.97,1.51-0.01v-75.27C528.73,341.16,527.22,341.17,527.22,342.14z"/>
		<path class="st10" d="M600.92,381.5c-4.62,5.8-9.02,11.78-13.2,17.91V376.3c0.07-0.13,0.09-0.26,0.08-0.4
			c3.46-5.57,7.14-11,11.05-16.27c0.58-0.78-0.73-1.53-1.31-0.75c-3.45,4.66-6.72,9.44-9.82,14.34v-35.16
			c0-0.97-1.51-0.97-1.51,0.01v36.68c-5.36-2.58-11.14-4.17-16.37-7.03c-0.85-0.47-1.61,0.84-0.75,1.31c5.47,3,11.56,4.6,17.13,7.4
			v22.84c-4.79-2.71-9.51-5.55-14.13-8.54c-0.82-0.53-1.57,0.78-0.75,1.31c4.87,3.15,9.83,6.14,14.89,8.98v15.38
			c0,0.97,1.51,0.97,1.51-0.01v-14.37c0.03-0.04,0.07-0.06,0.1-0.1c4.46-6.63,9.18-13.09,14.16-19.34
			C602.58,381.83,601.53,380.74,600.92,381.5z"/>
		<path class="st10" d="M540.88,350.97c-4.87,5.96-9.39,12.2-13.54,18.68c-0.52,0.82,0.78,1.57,1.31,0.75
			c4.07-6.37,8.51-12.5,13.29-18.36C542.55,351.3,541.5,350.22,540.88,350.97z"/>
		<path class="st10" d="M542.34,386.8c-5.29,5.78-10.24,11.86-14.85,18.2c-0.57,0.78,0.74,1.53,1.31,0.75
			c4.53-6.23,9.41-12.19,14.61-17.88C544.05,387.16,543,386.09,542.34,386.8z"/>
		<path class="st10" d="M528.1,387.89c-1.55-2.47-3.81-4.52-5.79-6.65c-2.1-2.26-4.21-4.52-6.31-6.79
			c-0.66-0.71-1.74,0.35-1.07,1.06c2.05,2.2,4.09,4.4,6.14,6.59c1.01,1.08,2.02,2.17,3.02,3.25c0.97,1.04,1.95,2.07,2.71,3.28
			C527.3,389.46,528.61,388.72,528.1,387.89z"/>
		<path class="st10" d="M528.45,355.29c-3.66-4.13-7.51-8.08-11.54-11.85c-0.71-0.66-1.79,0.4-1.07,1.06
			c4.03,3.77,7.88,7.72,11.54,11.85C528.02,357.08,529.09,356.01,528.45,355.29z"/>
	</g>
	<path class="st5" d="M298.62,147.49c0,0.45-0.02,0.91-0.03,1.34c-0.02,0.48-0.05,0.97-0.11,1.45c-1.96,23.25-27.13,47.2-27.13,47.2
		c-17.25-16.79-22.75-32.54-25.91-41.51c-0.83-2.49-1.3-5.13-1.34-7.88c-0.02-0.39-0.02-0.6-0.02-0.6
		c0-15.04,12.21-27.25,27.26-27.25C286.42,120.24,298.62,132.45,298.62,147.49z M282.45,148.55c0-6.13-4.96-11.09-11.09-11.09
		c-6.13,0-11.09,4.96-11.09,11.09s4.96,11.09,11.09,11.09C277.48,159.64,282.45,154.67,282.45,148.55z"/>
	<g>
		<path class="st9" d="M303.76,418.62H63.89h-0.02c-1.15-6.96,5.46-13.25,12.07-16.25c10.26-4.68,22.16-5.64,33.04-2.7
			c-6.14-6.77-11.98-14.18-14.59-22.95c-2.61-8.77-1.34-19.21,5.24-25.56c5.96-5.75,15.25-7.09,23.25-4.92
			c8.01,2.17,14.86,7.39,20.64,13.34c-5.48-13.81-5.54-29.68-0.17-43.53c2.49-6.43,7.27-13.17,14.17-13.43
			c3.47-0.12,6.79,1.48,9.63,3.5c7.5,5.33,12.51,13.59,15.5,22.3c2.99,8.69,4.13,17.91,5.25,27.04c3.39-6.62,8.33-12.43,14.29-16.87
			c6.1-4.51,14.5-7.54,21.15-3.91c6.55,3.58,8.57,11.99,9.01,19.46c0.56,9.57-0.33,19.22-2.67,28.52
			c7.83-6.01,17.11-10.34,26.92-11.44c9.81-1.12,20.13,1.18,27.97,7.17C296.67,387.63,301.08,403.62,303.76,418.62z"/>
		<path class="st10" d="M161.52,394.28v-19.69c0.1-0.06,0.2-0.14,0.27-0.27c4.31-7.35,9.02-14.47,14.11-21.31
			c0.58-0.78-0.73-1.53-1.31-0.75c-4.69,6.31-9.04,12.86-13.07,19.6v-46.31c0-0.97-1.51-0.97-1.51,0.01v67
			c-5.44-5.61-10.73-11.35-15.83-17.26c-0.64-0.74-1.71,0.33-1.07,1.06c5.44,6.31,11.08,12.44,16.9,18.39v21.94
			c0,0.97,1.51,0.97,1.51-0.01v-5.31c3.81-5.47,8.04-10.64,12.64-15.46c0.67-0.7-0.39-1.78-1.06-1.07
			c-4.18,4.38-8.04,9.07-11.58,13.98v-14.21C161.54,394.51,161.55,394.4,161.52,394.28z"/>
		<path class="st10" d="M219.83,371.8c-4.03,5.12-7.76,10.47-11.2,16c0.1-4.26,0.19-8.52,0.32-12.78c0.12-3.94,0.25-7.88,0.4-11.82
			c0.04-0.97-1.47-0.96-1.51,0.01c-0.47,12.97-0.81,25.95-1.02,38.92c-4.89-2.71-9.58-5.77-14.01-9.19
			c-0.77-0.59-1.51,0.72-0.75,1.31c4.65,3.58,9.58,6.79,14.73,9.6c-0.01,0.41-0.02,0.82-0.03,1.23c-0.06,3.94-0.11,7.89-0.14,11.83
			c-0.01,0.97,1.5,0.97,1.51-0.01c0.04-4.45,0.1-8.9,0.18-13.34c0.03-0.11,0.03-0.23,0.01-0.34c0.07-4.23,0.16-8.46,0.25-12.68
			c0.12-0.06,0.23-0.14,0.31-0.28c3.66-6.02,7.67-11.83,12.02-17.37C221.48,372.12,220.43,371.04,219.83,371.8z"/>
		<path class="st10" d="M131.04,394.06c-3.26,3.88-6.31,7.92-9.21,12.08c0.27-5.3,0.5-10.59,0.66-15.9
			c0.03-0.97-1.48-0.96-1.51,0.01c-0.28,9.3-0.73,18.59-1.35,27.87c-0.06,0.97,1.44,0.96,1.51-0.01c0.22-3.24,0.39-6.48,0.56-9.72
			c0.22-0.01,0.44-0.1,0.59-0.33c3.05-4.47,6.32-8.79,9.8-12.94C132.72,394.4,131.66,393.32,131.04,394.06z"/>
	</g>
	<g>
		<polygon class="st2" points="491.51,234.23 503.47,256.66 503.32,256.74 417.8,256.74 397.55,234.53 397.8,234.3 491.36,234.3 		
			"/>
		<polygon class="st2" points="417.8,256.74 441.81,283.05 443.01,284.38 437.43,289.47 427.61,278.69 366.38,211.55 305.16,278.69 
			295.33,289.47 289.75,284.38 291.27,282.71 314.9,256.8 334.92,234.85 342.91,226.1 366.38,200.36 389.86,226.1 397.55,234.53 		
			"/>
		<polygon class="st2" points="334.92,234.85 314.9,256.8 314.83,256.74 228.83,256.74 240.79,234.3 334.34,234.3 		"/>
		<rect x="262.82" y="209" class="st2" width="17.08" height="17.09"/>
		<polygon class="st11" points="517.79,403.76 517.79,418.14 427.61,418.14 427.61,403.76 508.96,403.76 		"/>
		<polygon class="st12" points="503.47,256.66 517.35,282.71 508.96,282.71 442.18,282.71 441.81,283.05 417.8,256.74 
			503.32,256.74 		"/>
		<path class="st13" d="M508.96,282.71v121.05h-81.35v-74.87h0.18v-6.23h-0.18v-43.97l9.82,10.77l5.58-5.08l-1.21-1.33l0.38-0.35
			H508.96z M493.06,377.02v-7.21h-6.64v-55.55h-33.25v55.55h-6.64v7.21H493.06z"/>
		<polygon class="st12" points="493.06,369.81 493.06,377.02 446.53,377.02 446.53,369.81 453.17,369.81 456.5,369.81 
			467.94,369.81 472.56,369.81 483.39,369.81 486.42,369.81 		"/>
		<polygon class="st12" points="487.18,226.1 491.51,234.23 491.36,234.3 397.8,234.3 397.55,234.53 389.86,226.1 		"/>
		<polygon class="st12" points="486.42,314.26 486.42,369.81 483.39,369.81 483.39,344.2 483.39,339.45 483.39,318.6 472.56,318.6 
			467.94,318.6 456.5,318.6 456.5,339.45 456.5,344.2 456.5,369.81 453.17,369.81 453.17,314.26 		"/>
		<rect x="472.56" y="344.2" class="st3" width="10.83" height="25.6"/>
		<rect x="472.56" y="339.45" class="st12" width="10.83" height="4.75"/>
		<rect x="472.56" y="318.6" class="st3" width="10.83" height="20.85"/>
		<rect x="467.94" y="344.2" class="st12" width="4.62" height="25.6"/>
		<rect x="467.94" y="339.45" class="st12" width="4.62" height="4.75"/>
		<rect x="467.94" y="318.6" class="st12" width="4.62" height="20.85"/>
		<rect x="456.5" y="344.2" class="st3" width="11.44" height="25.6"/>
		<rect x="456.5" y="339.45" class="st12" width="11.44" height="4.75"/>
		<rect x="456.5" y="318.6" class="st3" width="11.44" height="20.85"/>
		<polygon class="st13" points="427.61,403.76 427.61,418.14 409.61,418.14 409.61,406.64 390.39,406.64 390.39,341.53 
			346.98,341.53 342.38,341.53 342.38,406.64 323.16,406.64 323.16,418.14 305.16,418.14 305.16,403.76 305.16,328.89 
			427.61,328.89 		"/>
		<rect x="305.16" y="322.66" class="st14" width="122.45" height="6.23"/>
		<path class="st13" d="M427.61,278.69v43.97H305.16v-43.97l61.23-67.14L427.61,278.69z M398.43,316.01v-7.32h-9.16v-56.35h-45.78
			v56.35h-9.16v7.32H398.43z"/>
		<polygon class="st11" points="409.61,406.64 409.61,418.14 323.16,418.14 323.16,406.64 342.38,406.64 346.98,406.64 
			390.39,406.64 		"/>
		<polygon class="st12" points="398.43,308.69 398.43,316.01 334.34,316.01 334.34,308.69 343.49,308.69 347.66,308.69 
			362.58,308.69 368.95,308.69 384.68,308.69 389.27,308.69 		"/>
		<rect x="346.98" y="341.53" class="st15" width="43.41" height="65.1"/>
		<polygon class="st12" points="389.27,252.33 389.27,308.69 384.68,308.69 384.68,282.71 384.68,277.89 384.68,256.74 
			368.95,256.74 362.58,256.74 347.66,256.74 347.66,277.89 347.66,282.71 347.66,308.69 343.49,308.69 343.49,252.33 		"/>
		<rect x="368.95" y="282.71" class="st3" width="15.74" height="25.98"/>
		<rect x="368.95" y="277.89" class="st12" width="15.74" height="4.81"/>
		<rect x="368.95" y="256.74" class="st3" width="15.74" height="21.15"/>
		<rect x="362.58" y="282.71" class="st12" width="6.37" height="25.98"/>
		<rect x="362.58" y="277.89" class="st12" width="6.37" height="4.81"/>
		<rect x="362.58" y="256.74" class="st12" width="6.37" height="21.15"/>
		<rect x="347.66" y="282.71" class="st3" width="14.92" height="25.98"/>
		<rect x="347.66" y="277.89" class="st12" width="14.92" height="4.81"/>
		<rect x="347.66" y="256.74" class="st3" width="14.92" height="21.15"/>
		<rect x="342.38" y="341.53" class="st16" width="4.6" height="65.1"/>
		<polygon class="st12" points="342.91,226.1 334.92,234.85 334.34,234.3 240.79,234.3 245.17,226.1 262.82,226.1 279.9,226.1 		"/>
		<polygon class="st12" points="314.9,256.8 291.27,282.71 223.8,282.71 214.99,282.71 228.83,256.74 314.83,256.74 		"/>
		<polygon class="st11" points="305.16,403.76 305.16,418.14 214.99,418.14 214.99,403.76 223.8,403.76 		"/>
		<path class="st13" d="M305.16,328.89v74.87H223.8V282.71h67.47l-1.52,1.67l5.58,5.08l9.82-10.77v43.97V328.89z M286.24,377.02
			v-7.21h-6.64v-55.55h-33.25v55.55h-6.64v7.21H286.24z"/>
		<polygon class="st12" points="286.24,369.81 286.24,377.02 239.7,377.02 239.7,369.81 246.34,369.81 249.38,369.81 260.21,369.81 
			264.83,369.81 276.26,369.81 279.6,369.81 		"/>
		<polygon class="st12" points="279.6,314.26 279.6,369.81 276.26,369.81 276.26,344.2 276.26,339.45 276.26,318.6 264.83,318.6 
			260.21,318.6 249.38,318.6 249.38,339.45 249.38,344.2 249.38,369.81 246.34,369.81 246.34,314.26 		"/>
		<rect x="264.83" y="344.2" class="st3" width="11.44" height="25.6"/>
		<rect x="264.83" y="339.45" class="st12" width="11.44" height="4.75"/>
		<rect x="264.83" y="318.6" class="st3" width="11.44" height="20.85"/>
		<rect x="260.21" y="344.2" class="st12" width="4.62" height="25.6"/>
		<rect x="260.21" y="339.45" class="st12" width="4.62" height="4.75"/>
		<rect x="260.21" y="318.6" class="st12" width="4.62" height="20.85"/>
		<rect x="249.38" y="344.2" class="st3" width="10.83" height="25.6"/>
		<rect x="249.38" y="339.45" class="st12" width="10.83" height="4.75"/>
		<rect x="249.38" y="318.6" class="st3" width="10.83" height="20.85"/>
		<polygon class="st17" points="305.16,278.69 289.75,403.76 305.16,403.76 		"/>
		<polygon class="st17" points="427.61,403.76 453.17,282.71 442.18,282.71 441.81,283.05 443.01,284.38 437.43,289.47 
			427.61,278.69 		"/>
	</g>
	<path class="st18" d="M63.88,418.62l630.61-0.74c0,0-71.95,22.39-328.72,22.39S63.88,418.62,63.88,418.62z"/>
	<g>
		<rect x="142.03" y="280.82" class="st0" width="155.43" height="60.4"/>
		<polygon class="st13" points="221.07,321.27 223.35,325.89 228.45,326.63 224.76,330.23 225.63,335.3 221.07,332.91 216.5,335.3 
			217.38,330.23 213.68,326.63 218.78,325.89 		"/>
		<polygon class="st13" points="239.7,321.27 241.98,325.89 247.08,326.63 243.39,330.23 244.27,335.3 239.7,332.91 235.14,335.3 
			236.01,330.23 232.32,326.63 237.42,325.89 		"/>
		<polygon class="st13" points="258.1,321.27 260.38,325.89 265.48,326.63 261.79,330.23 262.66,335.3 258.1,332.91 253.54,335.3 
			254.41,330.23 250.72,326.63 255.82,325.89 		"/>
		<polygon class="st13" points="276.73,321.27 279.02,325.89 284.12,326.63 280.43,330.23 281.3,335.3 276.73,332.91 272.17,335.3 
			273.04,330.23 269.35,326.63 274.45,325.89 		"/>
		<polygon class="st13" points="203.1,321.27 205.38,325.89 210.48,326.63 206.79,330.23 207.66,335.3 203.1,332.91 198.54,335.3 
			199.41,330.23 195.72,326.63 200.82,325.89 		"/>
		<rect x="146.47" y="287.34" class="st1" width="39.24" height="39.24"/>
		<rect x="189.25" y="287.34" class="st12" width="102.29" height="2.13"/>
		<rect x="189.25" y="296.18" class="st12" width="102.29" height="2.13"/>
		<rect x="189.25" y="305.54" class="st12" width="102.29" height="2.13"/>
		<rect x="189.25" y="314.38" class="st12" width="89.09" height="2.13"/>
		<g>
			<polygon class="st19" points="185.71,287.34 146.47,326.57 146.47,287.34 			"/>
		</g>
		<g>
			<rect x="142.03" y="347.03" class="st0" width="155.43" height="60.4"/>
			<polygon class="st13" points="221.07,387.47 223.35,392.09 228.45,392.83 224.76,396.43 225.63,401.51 221.07,399.11 
				216.5,401.51 217.38,396.43 213.68,392.83 218.78,392.09 			"/>
			<polygon class="st13" points="239.7,387.47 241.98,392.09 247.08,392.83 243.39,396.43 244.27,401.51 239.7,399.11 
				235.14,401.51 236.01,396.43 232.32,392.83 237.42,392.09 			"/>
			<polygon class="st13" points="258.1,387.47 260.38,392.09 265.48,392.83 261.79,396.43 262.66,401.51 258.1,399.11 
				253.54,401.51 254.41,396.43 250.72,392.83 255.82,392.09 			"/>
			<polygon class="st13" points="276.73,387.47 279.02,392.09 284.12,392.83 280.43,396.43 281.3,401.51 276.73,399.11 
				272.17,401.51 273.04,396.43 269.35,392.83 274.45,392.09 			"/>
			<polygon class="st13" points="203.1,387.47 205.38,392.09 210.48,392.83 206.79,396.43 207.66,401.51 203.1,399.11 
				198.54,401.51 199.41,396.43 195.72,392.83 200.82,392.09 			"/>
			<rect x="146.47" y="353.54" class="st1" width="39.24" height="39.24"/>
			<rect x="189.25" y="353.54" class="st12" width="102.29" height="2.13"/>
			<rect x="189.25" y="362.39" class="st12" width="102.29" height="2.13"/>
			<rect x="189.25" y="371.74" class="st12" width="102.29" height="2.13"/>
			<rect x="189.25" y="380.59" class="st12" width="89.09" height="2.13"/>
			<g>
				<polygon class="st19" points="185.71,353.54 146.47,392.78 146.47,353.54 				"/>
			</g>
		</g>
	</g>
	<g>
		<g>
			<path class="st5" d="M141.04,252.13l-6.71-6.71l-6.67,6.66l-5.44-5.44l6.67-6.66l-6.67-6.67l5.44-5.44l6.67,6.67l6.66-6.67
				l5.44,5.44l-6.66,6.67l6.71,6.71L141.04,252.13z M134.32,243.61l6.71,6.71l3.63-3.63l-6.71-6.71l6.66-6.67l-3.63-3.63l-6.66,6.67
				l-6.67-6.67l-3.63,3.63l6.67,6.67l-6.67,6.66l3.63,3.63L134.32,243.61z"/>
		</g>
		<g>
			<path class="st5" d="M166.26,195.99l-18.19-14.87l14.87-18.19l18.19,14.87L166.26,195.99z M149.88,180.94l16.21,13.25
				l13.25-16.21l-16.21-13.25L149.88,180.94z M165.63,189.74l-11.31-9.25l9.25-11.31l11.31,9.25L165.63,189.74z M156.13,180.31
				l9.33,7.63l7.63-9.33l-9.33-7.63L156.13,180.31z"/>
		</g>
		<path class="st1" d="M174.87,221.01c6.98,0,12.65,5.67,12.65,12.63s-5.67,12.65-12.65,12.65c-6.97,0-12.63-5.68-12.63-12.65
			S167.91,221.01,174.87,221.01z M182.8,233.65c0-4.37-3.55-7.91-7.92-7.91c-4.36,0-7.91,3.54-7.91,7.91c0,4.37,3.55,7.92,7.91,7.92
			C179.24,241.57,182.8,238.02,182.8,233.65z"/>
		<path class="st20" d="M203.1,183.65c4.1,0,7.43,3.33,7.43,7.42s-3.33,7.43-7.43,7.43c-4.09,0-7.42-3.34-7.42-7.43
			S199,183.65,203.1,183.65z M207.75,191.07c0-2.57-2.09-4.65-4.66-4.65c-2.56,0-4.65,2.08-4.65,4.65c0,2.57,2.09,4.66,4.65,4.66
			C205.66,195.73,207.75,193.64,207.75,191.07z"/>
		
			<rect x="190.59" y="134.58" transform="matrix(0.8229 0.5682 -0.5682 0.8229 114.0712 -86.4771)" class="st1" width="10.35" height="10.35"/>
		<circle class="st1" cx="378.78" cy="140.59" r="6.31"/>
		<g>
			<path class="st13" d="M633.91,207.36l6.71-6.71l-6.66-6.67l5.44-5.44l6.66,6.67l6.67-6.67l5.43,5.44l-6.67,6.67l6.67,6.66
				l-5.43,5.44l-6.67-6.66l-6.71,6.71L633.91,207.36z M652.73,210.93l3.62-3.63l-6.67-6.66l6.67-6.67l-3.62-3.63l-6.67,6.67
				l-6.66-6.67l-3.63,3.63l6.66,6.67l-6.71,6.71l3.63,3.63l6.71-6.71L652.73,210.93z"/>
		</g>
		<g>
			<path class="st0" d="M557.21,228.65l18.19-14.87l14.87,18.19l-18.19,14.87L557.21,228.65z M575.21,215.59l-16.21,13.25
				l13.25,16.21l16.21-13.25L575.21,215.59z M563.46,229.28l11.31-9.25l9.25,11.31l-11.31,9.25L563.46,229.28z M574.59,221.84
				l-9.33,7.63l7.63,9.33l9.33-7.63L574.59,221.84z"/>
		</g>
		<path class="st1" d="M641.83,239.98c0,6.97-5.67,12.65-12.63,12.65c-6.98,0-12.65-5.68-12.65-12.65c0-6.97,5.67-12.63,12.65-12.63
			C636.16,227.34,641.83,233.01,641.83,239.98z M629.19,247.9c4.36,0,7.91-3.55,7.91-7.92c0-4.37-3.55-7.91-7.91-7.91
			c-4.37,0-7.92,3.54-7.92,7.91C621.27,244.35,624.82,247.9,629.19,247.9z"/>
		<path class="st5" d="M621.03,205.32c0,4.09-3.33,7.43-7.42,7.43c-4.1,0-7.43-3.34-7.43-7.43s3.33-7.42,7.43-7.42
			C617.7,197.9,621.03,201.23,621.03,205.32z M613.61,209.98c2.56,0,4.65-2.09,4.65-4.66c0-2.57-2.09-4.65-4.65-4.65
			c-2.57,0-4.66,2.08-4.66,4.65C608.95,207.89,611.04,209.98,613.61,209.98z"/>
		
			<rect x="608.43" y="150.56" transform="matrix(-0.8229 0.5682 -0.5682 -0.8229 1207.0322 -64.7402)" class="st13" width="10.35" height="10.35"/>
		<circle class="st5" cx="559.64" cy="140.24" r="3.33"/>
		<circle class="st5" cx="643.53" cy="291" r="4.7"/>
		<circle class="st5" cx="117.12" cy="288.48" r="4.31"/>
		<circle class="st0" cx="227.04" cy="215.67" r="4.12"/>
	</g>
</g>
<g id="DESIGNED_BY_FREEPIK">
</g>
</svg>
