<svg xmlns="http://www.w3.org/2000/svg" viewBox="0 0 80.269 48">
  <defs>
    <style>
      .cls-1 {
        fill: #252f3e;
      }

      .cls-2 {
        fill: #f90;
      }
    </style>
  </defs>
  <g id="logo_aws" transform="translate(-49.668 -110.1)">
    <path id="Path_204" data-name="Path 204" class="cls-1" d="M81.4,127.533a8.077,8.077,0,0,0,.294,2.376,14.291,14.291,0,0,0,.854,1.922,1.161,1.161,0,0,1,.187.614,1.057,1.057,0,0,1-.507.8l-1.682,1.121a1.28,1.28,0,0,1-.694.24,1.228,1.228,0,0,1-.8-.374,8.258,8.258,0,0,1-.961-1.255c-.267-.454-.534-.961-.828-1.575a9.862,9.862,0,0,1-7.849,3.684,7.315,7.315,0,0,1-5.339-1.922,7.532,7.532,0,0,1,.454-10.625,9.712,9.712,0,0,1,6.541-2.082,21.138,21.138,0,0,1,2.83.214c.988.133,2,.347,3.07.587V119.31c0-2.029-.427-3.444-1.255-4.271-.854-.828-2.3-1.228-4.352-1.228a12.147,12.147,0,0,0-2.883.347,21.272,21.272,0,0,0-2.883.908,7.661,7.661,0,0,1-.934.347,1.638,1.638,0,0,1-.427.08c-.374,0-.561-.267-.561-.828v-1.308a1.689,1.689,0,0,1,.187-.934,2,2,0,0,1,.747-.561,15.37,15.37,0,0,1,3.364-1.2,16.185,16.185,0,0,1,4.165-.507c3.177,0,5.5.721,6.994,2.162,1.468,1.442,2.216,3.631,2.216,6.567v8.65Zm-10.839,4.058a8.652,8.652,0,0,0,2.75-.481,5.949,5.949,0,0,0,2.536-1.709,4.237,4.237,0,0,0,.908-1.709,9.584,9.584,0,0,0,.267-2.323v-1.121a22.294,22.294,0,0,0-2.456-.454,20.117,20.117,0,0,0-2.509-.16A6.155,6.155,0,0,0,68.08,124.7a3.814,3.814,0,0,0,2.483,6.888ZM92,134.474a1.49,1.49,0,0,1-1.014-.267,2.176,2.176,0,0,1-.561-1.041l-6.274-20.636a4.676,4.676,0,0,1-.24-1.068.586.586,0,0,1,.641-.667h2.616a1.48,1.48,0,0,1,1.041.267,2.184,2.184,0,0,1,.534,1.041l4.485,17.673L97.393,112.1a1.873,1.873,0,0,1,.507-1.041,1.836,1.836,0,0,1,1.068-.267H101.1a1.607,1.607,0,0,1,1.068.267,1.8,1.8,0,0,1,.507,1.041l4.218,17.887,4.618-17.887a2.289,2.289,0,0,1,.534-1.041,1.742,1.742,0,0,1,1.041-.267h2.483a.593.593,0,0,1,.667.667,2.661,2.661,0,0,1-.053.427,3.8,3.8,0,0,1-.187.667l-6.434,20.636a2.047,2.047,0,0,1-.561,1.041,1.708,1.708,0,0,1-1.014.267h-2.3a1.607,1.607,0,0,1-1.068-.267,1.893,1.893,0,0,1-.507-1.068l-4.138-17.219-4.111,17.192a2.084,2.084,0,0,1-.507,1.068,1.655,1.655,0,0,1-1.068.267Zm34.3.721a17.666,17.666,0,0,1-4.111-.481,12.145,12.145,0,0,1-3.07-1.068,1.924,1.924,0,0,1-.828-.747,1.884,1.884,0,0,1-.16-.747V130.79c0-.561.214-.828.614-.828a1.511,1.511,0,0,1,.481.08c.16.053.4.16.667.267a14.521,14.521,0,0,0,2.937.934,16.032,16.032,0,0,0,3.177.32,7.2,7.2,0,0,0,3.9-.881,2.875,2.875,0,0,0,1.388-2.536,2.6,2.6,0,0,0-.721-1.869,6.7,6.7,0,0,0-2.7-1.388l-3.871-1.2a8.143,8.143,0,0,1-4.271-2.723,6.36,6.36,0,0,1-1.335-3.871,5.941,5.941,0,0,1,.721-2.963,6.864,6.864,0,0,1,1.922-2.189,8.473,8.473,0,0,1,2.776-1.388,11.636,11.636,0,0,1,3.364-.454,13.4,13.4,0,0,1,1.789.107c.614.08,1.175.187,1.735.294.534.133,1.041.267,1.522.427a5.826,5.826,0,0,1,1.121.481,2.308,2.308,0,0,1,.8.667,1.439,1.439,0,0,1,.24.881v1.255c0,.561-.214.854-.614.854a2.777,2.777,0,0,1-1.014-.32,12.213,12.213,0,0,0-5.126-1.041,6.891,6.891,0,0,0-3.551.747,2.578,2.578,0,0,0-1.255,2.376,2.521,2.521,0,0,0,.8,1.9,7.974,7.974,0,0,0,2.937,1.468l3.791,1.2a8.12,8.12,0,0,1,4.138,2.563,6.041,6.041,0,0,1,1.228,3.737,6.863,6.863,0,0,1-.694,3.1,7.18,7.18,0,0,1-1.949,2.349,8.606,8.606,0,0,1-2.963,1.495A12.7,12.7,0,0,1,126.3,135.195Z" transform="translate(-9.113 0)"/>
    <path id="Path_205" data-name="Path 205" class="cls-2" d="M122.237,230.337c-8.783,6.487-21.544,9.931-32.516,9.931a58.826,58.826,0,0,1-39.7-15.137c-.828-.747-.08-1.762.908-1.175a78.843,78.843,0,0,0,70.025,4.351C122.424,227.64,123.679,229.269,122.237,230.337Zm3.657-4.165c-1.121-1.442-7.422-.694-10.278-.347-.854.107-.988-.641-.214-1.2,5.019-3.524,13.268-2.509,14.229-1.335.961,1.2-.267,9.451-4.966,13.4-.721.614-1.415.294-1.095-.507C124.64,233.54,127.016,227.587,125.895,226.172Z" transform="translate(0 -82.168)"/>
  </g>
</svg>
