<svg xmlns="http://www.w3.org/2000/svg" viewBox="0 0 63.996 49.577">
  <defs>
    <style>
      .cls-1 {
        fill: #0089d6;
      }
    </style>
  </defs>
  <g id="logo_azure" transform="translate(677.932 -313.853)">
    <g id="layer1-1" transform="translate(-677.932 313.853)">
      <path id="path21" class="cls-1" d="M10.19,43.416c8.223-1.451,15.013-2.656,15.091-2.67l.141-.032-7.762-9.232C13.389,26.4,9.9,22.229,9.9,22.206,9.9,22.16,17.916.087,17.957.01c.014-.027,5.471,9.391,13.225,22.83,7.26,12.581,13.243,22.954,13.3,23.05l.1.178-24.67-.009-24.67,0S10.19,43.416,10.19,43.416ZM-19.417,40.6c0-.014,3.66-6.361,8.127-14.11L-3.162,12.4,6.312,4.454C11.523.083,15.8-3.5,15.817-3.509a1.567,1.567,0,0,1-.151.383c-.1.219-4.732,10.149-10.286,22.064l-10.1,21.667-7.347.009C-16.108,40.619-19.417,40.615-19.417,40.6Z" transform="translate(19.417 3.509)"/>
    </g>
  </g>
</svg>
