<svg xmlns="http://www.w3.org/2000/svg" width="161.877" height="130.271" viewBox="0 0 161.877 130.271">
  <defs>
    <style>
      .cls-1 {
        fill: #ea4335;
      }

      .cls-2 {
        fill: #4285f4;
      }

      .cls-3 {
        fill: #34a853;
      }

      .cls-4 {
        fill: #fbbc05;
      }
    </style>
  </defs>
  <g id="cloud-logo" transform="translate(-1.045 -0.144)">
    <path id="Path_2070" data-name="Path 2070" class="cls-1" d="M88.19,36.017h4.937L107.2,21.947l.691-5.974A63.244,63.244,0,0,0,5,46.829a7.652,7.652,0,0,1,4.937-.3l28.141-4.641s1.432-2.37,2.172-2.222a35.1,35.1,0,0,1,48.038-3.653Z" transform="translate(15.572 0)"/>
    <path id="Path_2071" data-name="Path 2071" class="cls-2" d="M81.3,34.167A63.392,63.392,0,0,0,62.19,3.36L42.441,23.108A35.1,35.1,0,0,1,55.327,50.953v3.505a17.576,17.576,0,0,1,0,35.152H20.175L16.67,93.165v21.081l3.505,3.505H55.327A45.717,45.717,0,0,0,81.3,34.167Z" transform="translate(61.518 12.662)"/>
    <path id="Path_2072" data-name="Path 2072" class="cls-3" d="M32.258,50.19H67.41V22.049H32.258A17.473,17.473,0,0,1,25,20.47L20.064,22,5.894,36.07,4.66,41.007a45.47,45.47,0,0,0,27.6,9.183Z" transform="translate(14.233 80.027)"/>
    <path id="Path_2073" data-name="Path 2073" class="cls-4" d="M46.492,8a45.717,45.717,0,0,0-27.6,81.955l20.39-20.39A17.576,17.576,0,1,1,62.537,46.312l20.39-20.39A45.668,45.668,0,0,0,46.492,8Z" transform="translate(0 30.93)"/>
  </g>
</svg>
