<svg xmlns="http://www.w3.org/2000/svg" role="img" xmlns:xlink="http://www.w3.org/1999/xlink" viewBox="0.32 -0.55 99.73 100.36"><title>harbor-icon.svg</title><defs><linearGradient id="a" x1="264.79" x2="267.27" y1="952.39" y2="952.39" gradientTransform="matrix(30.43 0 0 -30.43 -7955.22 29285.75)" gradientUnits="userSpaceOnUse"><stop offset="0" stop-color="#60b932"/><stop offset=".28" stop-color="#60b932"/><stop offset="1" stop-color="#367c34"/></linearGradient><linearGradient id="d" x1="263.77" x2="266.26" y1="955.65" y2="955.65" gradientTransform="matrix(27.21 0 0 -27.21 -7073.85 26169.41)" xlink:href="#a"/><linearGradient id="f" x1="263.28" x2="265.76" y1="953.74" y2="953.74" gradientTransform="matrix(25.75 0 0 -25.75 -6671.13 24812.23)" xlink:href="#a"/><linearGradient id="h" x1="263.77" x2="266.25" y1="953.2" y2="953.2" gradientTransform="matrix(27.1 0 0 -27.1 -7040.9 26102.49)" xlink:href="#a"/><linearGradient id="j" x1="262.73" x2="265.21" y1="954.34" y2="954.34" gradientTransform="matrix(24.4 0 0 -24.4 -6301.36 23521.97)" xlink:href="#a"/><linearGradient id="l" x1="272.14" x2="274.62" y1="955.15" y2="955.15" gradientTransform="scale(66.09 -66.09) rotate(36.52 1588.153 68.148)" gradientUnits="userSpaceOnUse"><stop offset="0" stop-color="#4596d8"/><stop offset=".2" stop-color="#4596d8"/><stop offset="1" stop-color="#fff"/></linearGradient><linearGradient id="n" x1="270.65" x2="273.13" y1="952.38" y2="952.38" gradientTransform="scale(77.8 -77.8) rotate(-11.54 -4587.209 1803.323)" gradientUnits="userSpaceOnUse"><stop offset="0" stop-color="#4194d7"/><stop offset=".2" stop-color="#4194d7"/><stop offset="1" stop-color="#fff"/></linearGradient><linearGradient id="p" x1="270.97" x2="273.45" y1="953.75" y2="953.75" gradientTransform="scale(71.35 -71.35) rotate(10.23 5477.37 -1024.602)" gradientUnits="userSpaceOnUse"><stop offset="0" stop-color="#4194d7"/><stop offset=".33" stop-color="#4496d8"/><stop offset="1" stop-color="#fff"/></linearGradient><clipPath id="b"><path fill="none" d="M174.4 302.52l-68.65-30.26-3.83 43.21 75.5 23.98-3.02-36.93z" class="cls-1"/></clipPath><clipPath id="c"><path fill="none" d="M119.19 135.38h38.55v32.89h-9.15v-14a10.13 10.13 0 1 0-20.26 0v14h-9.15zm-7.7 72l57.2 25.21-3.94-48.24h7.49v-16.08h-5.55v-32.89h5.55v-9.45l-30.86-30.19v-2.12a2.91 2.91 0 0 0-5.82 0v2.12l-30.86 30.19v9.45h5.56v32.89h-5.56v16.12h8.82z" class="cls-1"/></clipPath><clipPath id="e"><path fill="none" d="M108.14 245.28l63.88 28.16-.96-11.73-61.96-27.3-.96 10.87z" class="cls-1"/></clipPath><clipPath id="g"><path fill="none" d="M106.46 264.21l67.23 29.63-.96-11.72-65.31-28.78-.96 10.87z" class="cls-1"/></clipPath><clipPath id="i"><path fill="none" d="M110.77 215.48l-.96 10.87 60.54 26.68-.95-11.72-58.63-25.83z" class="cls-1"/></clipPath><clipPath id="k"><path fill="none" d="M313.13 67.59a175.31 175.31 0 0 0-29.75-28.13c-1.57-1.17-3.18-2.3-4.79-3.42L256 59.5l-82.34 85.63 113.41-58.68 29.07-15c-1.01-1.31-1.98-2.62-3.01-3.86z" class="cls-1"/></clipPath><clipPath id="m"><path fill="none" d="M353.59 177.61c0-2-.14-4-.22-5.93l-32.21-2.31-147.47-10.58L318.36 209l30.41 10.55c.09-.36.19-.71.28-1.08a173.65 173.65 0 0 0 4.57-39.47v-1.37z" class="cls-1"/></clipPath><clipPath id="o"><path fill="none" d="M348.84 138.61a172.55 172.55 0 0 0-13.84-37.7l-30.94 9.94L175.92 152l142-4.83 32.5-1.11c-.5-2.48-.99-4.98-1.58-7.45z" class="cls-1"/></clipPath></defs><path fill="none" d="M0 0h100v100H0z"/><path fill="#fff" d="M8.58062 49.72262a41.3531 41.3531 0 1 1 41.35311 41.34755 41.3531 41.3531 0 0 1-41.3531-41.34755" class="cls-2"/><g class="cls-3" clip-path="url(#b)" transform="scale(.27778)"><path fill="url(#a)" d="M174.4 302.52l-68.65-30.25-3.82 43.2 75.5 24-3-36.93" class="cls-4"/></g><g class="cls-5" clip-path="url(#c)" transform="scale(.27778)"><path fill="url(#d)" d="M119.19 135.38h38.55v32.89h-9.15v-14a10.13 10.13 0 1 0-20.26 0v14h-9.15zm-7.7 72l57.2 25.21-3.94-48.24h7.49v-16.08h-5.55v-32.89h5.55v-9.45l-30.86-30.19v-2.12a2.91 2.91 0 0 0-5.82 0v2.12l-30.86 30.19v9.45h5.56v32.89h-5.56v16.12h8.82l-2 23" class="cls-6"/></g><g class="cls-7" clip-path="url(#e)" transform="scale(.27778)"><path fill="url(#f)" d="M108.13 245.28L172 273.44l-1-11.72-62-27.31-1 10.87" class="cls-8"/></g><g class="cls-9" clip-path="url(#g)" transform="scale(.27778)"><path fill="url(#h)" d="M106.46 264.21l67.23 29.63-1-11.72-65.31-28.78-1 10.87" class="cls-10"/></g><g class="cls-11" clip-path="url(#i)" transform="scale(.27778)"><path fill="url(#j)" d="M110.77 215.48l-1 10.88L170.35 253l-1-11.72-58.62-25.83" class="cls-12"/></g><path fill="#696566" d="M84.46456 30.79191l8.59174-2.76113c-.03056-.06111-.05833-.125-.08889-.18333a48.44761 48.44761 0 0 0-5.15282-8.0084l-8.07506 4.1667a39.64198 39.64198 0 0 1 4.64726 6.6306c.02777.04723.05.09723.075.14723m4.74726 16.26402l8.9473.64167a48.01705 48.01705 0 0 0-.83335-7.10839l-9.02785.30834a39.16698 39.16698 0 0 1 .90279 6.15838" class="cls-13"/><path fill="#696566" d="M50.55596 89.1146c-21.7224 0-39.39754-17.67236-39.39754-39.39476S28.83912 10.3223 50.55596 10.3223a39.14754 39.14754 0 0 1 21.19461 6.20561l6.26394-6.52783a48.01705 48.01705 0 0 0-27.45855-8.58062c-26.62521 0-48.29205 21.66684-48.29205 48.30316s21.66684 48.29205 48.29205 48.29205c22.75018 0 41.85867-15.83346 46.94482-37.03363l-8.43896-2.92502c-3.83336 17.73348-19.63626 31.06414-38.5003 31.06414" class="cls-13"/><g class="cls-14" clip-path="url(#k)" transform="scale(.27778)"><path fill="url(#l)" d="M313.13 67.59a175.31 175.31 0 0 0-29.75-28.13c-1.57-1.17-3.18-2.3-4.79-3.42L256 59.5l-82.34 85.63 113.41-58.68 29.07-15c-1-1.27-2-2.58-3-3.82" class="cls-15"/></g><g class="cls-16" clip-path="url(#m)" transform="scale(.27778)"><path fill="url(#n)" d="M353.59 177.61c0-2-.14-4-.22-5.93l-32.21-2.31-147.47-10.58L318.36 209l30.41 10.55c.09-.36.19-.71.28-1.08a173.65 173.65 0 0 0 4.57-39.47v-1.37" class="cls-17"/></g><g class="cls-18" clip-path="url(#o)" transform="scale(.27778)"><path fill="url(#p)" d="M348.84 138.61a172.55 172.55 0 0 0-13.84-37.7l-30.94 9.94L175.92 152l142-4.83 32.5-1.11c-.48-2.51-1-5-1.56-7.48" class="cls-19"/></g></svg>