<?xml version="1.0" encoding="utf-8"?>
<!-- Generator: Adobe Illustrator 16.0.3, SVG Export Plug-In . SVG Version: 6.00 Build 0)  -->
<!DOCTYPE svg PUBLIC "-//W3C//DTD SVG 1.1//EN" "http://www.w3.org/Graphics/SVG/1.1/DTD/svg11.dtd">
<svg version="1.1"
	 id="svg19033" xmlns:svg="http://www.w3.org/2000/svg" xmlns:rdf="http://www.w3.org/1999/02/22-rdf-syntax-ns#" xmlns:dc="http://purl.org/dc/elements/1.1/" xmlns:cc="http://creativecommons.org/ns#"
	 xmlns="http://www.w3.org/2000/svg" xmlns:xlink="http://www.w3.org/1999/xlink" x="0px" y="0px" width="1260px"
	 height="327.542px" viewBox="0 342.96 1260 327.542" enable-background="new 0 342.96 1260 327.542" xml:space="preserve">
<g id="layer1" transform="translate(-376.988638095239,-421.52371558367)">
	<g id="g16771" transform="matrix(2.88957901340043,0,0,-2.88957901340043,462.859080281913,463.22520880311)">
		<path id="path16773" d="M66.377-148.702v18.325H-4.208v-18.325H66.377z M92.167-148.702c0-14.253-11.538-25.791-25.79-25.791
			H-4.208v-30.202c0-7.126-5.769-12.895-12.895-12.895s-12.895,5.769-12.895,12.895v87.213c0,7.126,5.769,12.895,12.895,12.895
			h83.14c14.253,0,25.79-11.538,25.79-25.791v-18.325H92.167z"/>
	</g>
	<g id="g16775" transform="matrix(2.88957901340043,0,0,-2.88957901340043,504.969782117903,521.897243796503)">
		<path id="path16777" d="M101.258-197.301c7.126,0,12.895,5.769,12.895,12.895v87.552c0,7.126-5.769,12.895-12.895,12.895
			c-7.127,0-12.895-5.769-12.895-12.895v-87.552C88.363-191.532,94.131-197.301,101.258-197.301"/>
	</g>
	<g id="g16779" transform="matrix(2.88957901340043,0,0,-2.88957901340043,547.003910110035,510.920022082496)">
		<path id="path16781" d="M136.075-188.209c0-7.126-5.769-12.895-12.895-12.895c-7.126,0-12.895,5.769-12.895,12.895v82.462
			c0,9.841,7.805,17.646,17.646,17.646c4.412,0,9.162-1.697,12.556-5.09l72.621-71.603v63.797c0,7.127,5.769,12.895,12.895,12.895
			c7.127,0,12.896-5.769,12.896-12.895v-82.462c0-9.841-7.805-17.646-17.646-17.646c-4.412,0-9.162,1.697-12.556,5.09l-72.621,72.96
			V-188.209z"/>
	</g>
	<g id="g16783" transform="matrix(2.88957901340043,0,0,-2.88957901340043,665.668517705941,521.891464638475)">
		<path id="path16785" d="M234.367-197.296c-14.253,0-25.79,11.538-25.79,25.79v61.761c0,14.253,11.538,25.791,25.79,25.791h81.783
			c7.126,0,12.895-5.769,12.895-12.895c0-7.127-5.769-12.896-12.895-12.896h-81.783v-61.761h76.014v17.986h-45.812
			c-7.126,0-12.895,5.769-12.895,12.895c0,7.126,5.769,12.895,12.895,12.895h45.812c14.252,0,25.79-11.538,25.79-25.79v-17.986
			c0-14.253-11.538-25.79-25.79-25.79H234.367z"/>
	</g>
</g>
</svg>
