<svg xmlns="http://www.w3.org/2000/svg" xmlns:xlink="http://www.w3.org/1999/xlink" width="28" height="28" viewBox="0 0 28 28">
  <defs>
    <clipPath id="clip-path">
      <rect id="Rectangle_384" data-name="Rectangle 384" width="28" height="28" transform="translate(3322 5709)" fill="#fff" stroke="#707070" stroke-width="1"/>
    </clipPath>
  </defs>
  <g id="Mask_Group_176" data-name="Mask Group 176" transform="translate(-3322 -5709)" clip-path="url(#clip-path)">
    <g id="_625af41029d66437b9eb84998b363d9b" data-name="625af41029d66437b9eb84998b363d9b" transform="translate(3321.718 5708.714)">
      <path id="Path_2148" data-name="Path 2148" d="M1.4,8.911l-.006.009,12.47,7.2a.822.822,0,0,0,.831,0l12.37-7.145a.821.821,0,0,0-.006-1.426L14.733.4a.83.83,0,0,0-.411-.111.808.808,0,0,0-.454.137L1.5,7.559a.821.821,0,0,0-.3,1.12A.86.86,0,0,0,1.4,8.911ZM14.319,2.054l10.7,6.2-10.742,6.2L3.551,8.271Z" fill="#fff"/>
      <path id="Path_2149" data-name="Path 2149" d="M27.06,13.57l-2.323-1.343-1.64.946,1.917,1.111-10.742,6.2L3.551,14.3l1.923-1.108-1.64-.946L1.5,13.587a.821.821,0,0,0-.3,1.12.83.83,0,0,0,.2.234l-.006.009,12.464,7.2a.822.822,0,0,0,.831,0L27.063,15a.824.824,0,0,0,.3-1.123A.8.8,0,0,0,27.06,13.57Z" fill="#fff"/>
      <path id="Path_2150" data-name="Path 2150" d="M27.06,19.6l-2.311-1.34-1.64.946,1.908,1.106-10.742,6.2L3.551,20.324l1.911-1.1-1.64-.946L1.5,19.615a.818.818,0,0,0-.1,1.351l-.006.009,12.467,7.2a.822.822,0,0,0,.831,0l12.373-7.145a.824.824,0,0,0,.3-1.123A.8.8,0,0,0,27.06,19.6Z" fill="#fff"/>
    </g>
  </g>
</svg>
