<svg xmlns="http://www.w3.org/2000/svg" xmlns:xlink="http://www.w3.org/1999/xlink" width="20" height="20" viewBox="0 0 20 20"><defs><style>.a,.c{fill:#f9f1e9;}.a{stroke:#707070;}.b{clip-path:url(#a);}</style><clipPath id="a"><rect class="a" width="20" height="20" transform="translate(-22112.5 -4639.5)"/></clipPath></defs><g class="b" transform="translate(22112.5 4639.5)"><g transform="translate(-22112.977 -4639.501)"><path class="c" d="M14.868,15.319l-1.333-1.671a4.885,4.885,0,0,0,.563-.483l.124-.124-.124-.124-.767-.767-.124-.124-.124.124a3.366,3.366,0,1,1,0-4.758l.124.124.124-.124.767-.767.124-.124L14.1,6.377a4.862,4.862,0,0,0-.486-.424l.755-.916a.946.946,0,1,0-.476-.4l-.8.965a5.479,5.479,0,0,0-.523-.26A4.768,4.768,0,0,0,10.7,4.97q-.144,0-.288.009L10.137,3.7a1.752,1.752,0,1,0-.606.13L9.8,5.056a4.633,4.633,0,0,0-.965.294A4.819,4.819,0,0,0,6.839,6.919l-.526-.424a1.253,1.253,0,1,0-.368.5l.56.452a4.581,4.581,0,0,0-.226.464,4.815,4.815,0,0,0,0,3.737,4.631,4.631,0,0,0,.22.449l-1.59,1.024a1.467,1.467,0,1,0,.337.517l1.587-1.024a5.4,5.4,0,0,0,.476.557A4.776,4.776,0,0,0,8.838,14.2a4.545,4.545,0,0,0,.433.158l-.2,1.194a1.124,1.124,0,1,0,.609.1L9.874,14.5a4.963,4.963,0,0,0,.835.071,4.757,4.757,0,0,0,1.869-.377c.152-.065.3-.136.439-.213l1.374,1.723a1.937,1.937,0,1,0,.476-.387Z" transform="translate(-0.896 -0.125)"/><path class="c" d="M19.965,7.026a1.476,1.476,0,0,0-2.918.331L12.264,8.418a2.741,2.741,0,1,0,.291,1.225,2.7,2.7,0,0,0-.074-.637l4.7-1.043a1.476,1.476,0,0,0,2.781-.937ZM10.4.659a8.922,8.922,0,0,1,7.15,4.99,2.065,2.065,0,0,1,.554-.217c.009,0,.019,0,.025-.006A9.523,9.523,0,0,0,9.662,0a2.029,2.029,0,0,1,.306.2A2.287,2.287,0,0,1,10.4.659ZM3.227,3.227A8.877,8.877,0,0,1,6.058,1.318c.142-.062.288-.118.433-.17A2.255,2.255,0,0,1,7.042.325,9.534,9.534,0,0,0,.993,13.765q.023-.116.056-.232a1.98,1.98,0,0,1,.266-.545A8.886,8.886,0,0,1,3.227,3.227ZM18.95,9.26a1.983,1.983,0,0,1-.427.046c-.031,0-.065,0-.1,0,0,.071,0,.145,0,.22a8.834,8.834,0,0,1-.7,3.465,8.924,8.924,0,0,1-1.216,2.054,2.354,2.354,0,0,1,.322.334c.034.043.068.087.1.133a9.483,9.483,0,0,0,2.116-5.987c0-.1,0-.192,0-.285-.037.006-.068.015-.1.022ZM9.523,18.43a8.869,8.869,0,0,1-6.1-2.416,1.954,1.954,0,0,1-.5.065,2.038,2.038,0,0,1-.337-.028A9.533,9.533,0,0,0,13.01,18.39a2.347,2.347,0,0,1-.319-.541,8.807,8.807,0,0,1-3.168.582Z"/></g></g></svg>