<?xml version="1.0" encoding="UTF-8"?>
<svg width="24" height="24" viewBox="0 0 24 24" version="1.1" xmlns="http://www.w3.org/2000/svg" xmlns:xlink="http://www.w3.org/1999/xlink">
    <!-- Generator: Sketch 51.3 (57544) - http://www.bohemiancoding.com/sketch -->
    <title>Shape</title>
    <desc>Created with Sketch.</desc>
    <defs></defs>
    <g id="Symbols" stroke="none" stroke-width="1" fill="none" fill-rule="evenodd">
        <g id="searchbar" transform="translate(-948.000000, -108.000000)" fill="#4A4A4A" fill-rule="nonzero">
            <path d="M965.152659,123.09434 L964.068611,123.09434 L963.684391,122.723842 C965.02916,121.15952 965.838765,119.128645 965.838765,116.919383 C965.838765,111.993139 961.845626,108 956.919383,108 C951.993139,108 948,111.993139 948,116.919383 C948,121.845626 951.993139,125.838765 956.919383,125.838765 C959.128645,125.838765 961.15952,125.02916 962.723842,123.684391 L963.09434,124.068611 L963.09434,125.152659 L969.955403,132 L972,129.955403 L965.152659,123.09434 Z M956.919383,123.09434 C953.502573,123.09434 950.744425,120.336192 950.744425,116.919383 C950.744425,113.502573 953.502573,110.744425 956.919383,110.744425 C960.336192,110.744425 963.09434,113.502573 963.09434,116.919383 C963.09434,120.336192 960.336192,123.09434 956.919383,123.09434 Z" id="Shape"></path>
        </g>
    </g>
</svg>