<svg xmlns="http://www.w3.org/2000/svg" xmlns:xlink="http://www.w3.org/1999/xlink" width="28" height="28" viewBox="0 0 28 28">
  <defs>
    <clipPath id="clip-path">
      <rect id="Rectangle_383" data-name="Rectangle 383" width="28" height="28" transform="translate(3394 5824)" fill="#fff" stroke="#707070" stroke-width="1"/>
    </clipPath>
  </defs>
  <g id="Mask_Group_175" data-name="Mask Group 175" transform="translate(-3394 -5824)" clip-path="url(#clip-path)">
    <g id="ebd52f32f9b550ff7c1e5d980811b0c3" transform="translate(3393.714 5823.714)">
      <path id="Path_2141" data-name="Path 2141" d="M24.646,26.634H3.926a3.642,3.642,0,0,1-3.64-3.64V5.577a3.644,3.644,0,0,1,3.64-3.64h20.72a3.644,3.644,0,0,1,3.64,3.64V22.994A3.642,3.642,0,0,1,24.646,26.634ZM3.62,3.023a2.3,2.3,0,0,0-2.3,2.3V23.251a2.3,2.3,0,0,0,2.3,2.3H24.951a2.3,2.3,0,0,0,2.3-2.3V5.32a2.3,2.3,0,0,0-2.3-2.3H3.62Z" fill="#fff"/>
      <path id="Path_2142" data-name="Path 2142" d="M6.437,8.471a.726.726,0,0,0,1.451,0h0a.726.726,0,0,0-1.451,0Z" fill="#fff"/>
      <path id="Path_2143" data-name="Path 2143" d="M6.437,14.286a.726.726,0,1,0,.726-.726A.727.727,0,0,0,6.437,14.286Z" fill="#fff"/>
      <path id="Path_2144" data-name="Path 2144" d="M6.437,20.1a.726.726,0,1,0,1.451,0h0a.726.726,0,1,0-1.451,0Z" fill="#fff"/>
      <path id="Path_2145" data-name="Path 2145" d="M9.677,7.934H22.066V8.971H9.677V7.934Z" fill="#fff"/>
      <path id="Path_2146" data-name="Path 2146" d="M9.677,13.783H22.066V14.82H9.677V13.783Z" fill="#fff"/>
      <path id="Path_2147" data-name="Path 2147" d="M9.677,19.566H22.066V20.6H9.677V19.566Z" fill="#fff"/>
    </g>
  </g>
</svg>
