<svg xmlns="http://www.w3.org/2000/svg" width="22.859" height="22.859" viewBox="0 0 22.859 22.859"><defs><style>.a{fill:#d5cdc8;}</style></defs><g transform="translate(-574.325 -687)"><g transform="translate(574.325 686.955)"><path class="a" d="M14.156,12.575l.535-.536a.381.381,0,0,0,0-.539l-.929-.925L14.8,9.417a2.514,2.514,0,0,0,.852.285,5.009,5.009,0,0,0,.543.041.783.783,0,0,1,.686.282.705.705,0,0,0-.241.514.781.781,0,0,0,.229.576l1.347,1.347a1.142,1.142,0,0,0,1.616,0l2.694-2.694a1.143,1.143,0,0,0,0-1.616L21.175,6.8a.758.758,0,0,0-.539-.223h-.009a.8.8,0,0,0-.536.217.721.721,0,0,1-.286-.663,5.1,5.1,0,0,0-.042-.542A2.627,2.627,0,0,0,19.012,4.1L17.624,2.713A6.469,6.469,0,0,0,15.4,1.061C13.19.056,10.939.235,7.628,1.679a.381.381,0,0,0,.152.73l.487,0c1.711-.013,2.567-.019,4.092,1.507a1.81,1.81,0,0,1-.082,2.613s0,.006-.006.009-.006,0-.009.007l-1.2,1.341L3.681.5a1.557,1.557,0,0,0-2.2,0L.456,1.527a1.555,1.555,0,0,0,0,2.2L8.021,11.29.47,19.74A1.585,1.585,0,0,0,0,20.833a1.49,1.49,0,0,0,.437,1.094l.539.539a1.488,1.488,0,0,0,1.063.437H2.07a1.6,1.6,0,0,0,1.108-.485l7.539-8.436.75.746a.381.381,0,0,0,.538,0l.535-.535,6.372,6.38,1.693-1.539ZM2.019,2.6a.381.381,0,0,1,.539-.539L9.034,8.539a.381.381,0,1,1-.539.539Zm8.4,10.573v0L2.625,21.9a.829.829,0,0,1-.569.246.756.756,0,0,1-.541-.214l-.539-.539a.736.736,0,0,1-.214-.541.847.847,0,0,1,.262-.585L12.563,7.35l1.6,1.6.015.015-1.226,1.372h0Zm1.318.745-.509-.506,1.308-1.464.719-.8.63.627Z"/><path class="a" d="M22.856,22.472l-.249-1.866a.382.382,0,0,0-.164-.265l-1.229-.832L19.4,21.16l.923,1.351a.38.38,0,0,0,.268.163l1.842.226.046,0a.381.381,0,0,0,.378-.432Z"/></g></g></svg>