<svg xmlns="http://www.w3.org/2000/svg" xmlns:xlink="http://www.w3.org/1999/xlink" width="28" height="28" viewBox="0 0 28 28">
  <defs>
    <clipPath id="clip-path">
      <rect id="Rectangle_360" data-name="Rectangle 360" width="28" height="28" transform="translate(3447.609 2559.609)" fill="#fff" stroke="#707070" stroke-width="1"/>
    </clipPath>
  </defs>
  <g id="Mask_Group_163" data-name="Mask Group 163" transform="translate(-3447.609 -2559.609)" clip-path="url(#clip-path)">
    <g id="_2273c44da16cd2af86522ee51123ff06" data-name="2273c44da16cd2af86522ee51123ff06" transform="translate(3447.951 2561.141)">
      <path id="Path_2131" data-name="Path 2131" d="M17.228.645a7.105,7.105,0,0,0-3.353,13.371A11.41,11.41,0,0,0,5.836,24.9a.677.677,0,1,0,1.355,0,10.04,10.04,0,0,1,9.984-10.037.6.6,0,0,0,.212-.014A7.1,7.1,0,0,0,17.228.645Zm0,12.852A5.749,5.749,0,1,1,22.976,7.75,5.756,5.756,0,0,1,17.228,13.5Zm-7.177.176h0v-.006a.676.676,0,0,0-.677-.677A4.631,4.631,0,0,1,4.908,8.221,4.63,4.63,0,0,1,9.374,3.452a.677.677,0,0,0,0-1.355,5.985,5.985,0,0,0-5.82,6.126A6.2,6.2,0,0,0,6.43,13.506,9.729,9.729,0,0,0,.122,22.751a.677.677,0,1,0,1.355,0,8.167,8.167,0,0,1,7.891-8.4.679.679,0,0,0,.683-.677Z" transform="translate(-0.122 -0.645)" fill="#fff"/>
      <path id="Path_2132" data-name="Path 2132" d="M17.864,9.617a.6.6,0,0,1-.6.6H8.226a.6.6,0,0,1-.6-.6h0a.6.6,0,0,1,.6-.6h9.036a.605.605,0,0,1,.6.6Z" transform="translate(9.451 10.033)" fill="#fff"/>
      <path id="Path_2133" data-name="Path 2133" d="M10.212,17.273a.6.6,0,0,1-.6-.6V7.632a.6.6,0,0,1,.6-.6h0a.6.6,0,0,1,.6.6v9.036a.6.6,0,0,1-.6.6Z" transform="translate(11.983 7.5)" fill="#fff"/>
    </g>
  </g>
</svg>
